<?xml version="1.0" encoding="utf-8"?>
<!-- Svg Vector Icons : http://www.onlinewebfonts.com/icon -->
<!DOCTYPE svg PUBLIC "-//W3C//DTD SVG 1.1//EN" "http://www.w3.org/Graphics/SVG/1.1/DTD/svg11.dtd">
<svg version="1.1" xmlns="http://www.w3.org/2000/svg" xmlns:xlink="http://www.w3.org/1999/xlink" x="0px" y="0px" viewBox="0 0 1000 1000" enable-background="new 0 0 1000 1000" xml:space="preserve">
<metadata> Svg Vector Icons : http://www.onlinewebfonts.com/icon </metadata>
<g><g><g><path d="M750,320h-18.2v445.4H750c21.8,0,39.6-17.8,39.6-39.6V359.6C789.6,337.8,771.8,320,750,320z"/><rect x="291.6" y="320" width="416.8" height="445.4"/><path d="M500,10C229.4,10,10,229.4,10,500c0,270.6,219.4,490,490,490c270.6,0,490-219.4,490-490C990,229.4,770.6,10,500,10z M408.1,211.2h190.2c34.7,0,63,28.2,63,63c0,6.5-5.2,11.7-11.7,11.7c-6.5,0-11.7-5.2-11.7-11.7c0-21.8-17.8-39.6-39.6-39.6H408.1c-21.8,0-39.6,17.8-39.6,39.6c0,6.5-5.2,11.7-11.7,11.7c-6.5,0-11.7-5.2-11.7-11.7C345.1,239.4,373.4,211.2,408.1,211.2z M813,725.9c0,34.7-28.2,63-63,63h-29.9H279.9H250c-34.7,0-63-28.2-63-63V359.6c0-34.7,28.2-63,63-63h29.9h440.2H750c34.7,0,63,28.2,63,63C813,359.6,813,725.9,813,725.9z"/><path d="M210.4,359.6v366.3c0,21.8,17.8,39.6,39.6,39.6h18.2V320H250C228.2,320,210.4,337.8,210.4,359.6z"/></g></g><g></g><g></g><g></g><g></g><g></g><g></g><g></g><g></g><g></g><g></g><g></g><g></g><g></g><g></g><g></g></g>
</svg>