<?xml version="1.0" standalone="no"?>
<!DOCTYPE svg PUBLIC "-//W3C//DTD SVG 20010904//EN"
 "http://www.w3.org/TR/2001/REC-SVG-20010904/DTD/svg10.dtd">
<svg version="1.0" xmlns="http://www.w3.org/2000/svg"
 width="1280.000000pt" height="720.000000pt" viewBox="0 0 1280.000000 720.000000"
 preserveAspectRatio="xMidYMid meet">

<g transform="translate(0.000000,720.000000) scale(0.100000,-0.100000)"
fill="#000000" stroke="none">
<path d="M0 4960 c0 -2208 0 -2240 19 -2240 11 0 31 4 44 9 14 6 75 12 136 15
62 3 116 8 122 11 5 4 47 11 92 16 45 5 125 13 177 19 52 6 136 11 185 11 50
1 96 6 103 12 7 5 44 11 83 11 39 1 73 7 77 13 4 7 58 13 132 17 73 3 126 9
128 15 5 15 29 14 35 -1 3 -10 7 -10 18 -1 8 6 50 14 94 18 44 4 112 13 152
20 40 8 123 17 185 20 62 3 131 10 153 15 22 5 84 12 137 15 l97 7 18 39 c11
23 25 39 36 39 11 0 17 8 17 25 0 14 4 25 9 25 5 0 17 7 25 16 9 8 25 16 37
17 13 1 29 16 42 39 19 32 27 38 55 38 22 0 40 8 56 25 13 14 46 33 72 42 27
9 60 24 73 35 13 10 29 18 36 18 7 0 25 10 40 21 21 17 29 19 35 9 4 -7 15
-10 25 -7 9 4 14 11 10 16 -3 5 5 13 17 17 13 4 24 2 26 -5 5 -15 20 -14 37 3
8 7 46 21 85 31 38 9 73 21 76 26 3 5 21 9 40 9 19 0 34 4 34 10 0 5 11 12 25
16 14 3 25 10 25 15 0 5 18 9 40 9 22 0 40 5 40 10 0 6 19 10 43 10 32 0 38 3
27 11 -12 8 -10 9 8 4 14 -4 28 -1 38 9 8 9 22 16 30 16 8 0 14 5 14 10 0 6
18 10 40 10 22 0 40 5 40 10 0 6 18 10 39 10 22 0 41 5 43 11 5 16 478 26 478
10 0 -15 43 -14 59 2 11 9 14 10 18 0 5 -15 83 -18 83 -4 0 15 63 35 110 36
113 1 149 6 164 20 18 19 33 19 51 2 14 -15 75 -11 75 4 0 5 18 9 40 9 22 0
40 5 40 10 0 6 18 10 40 10 30 0 40 -4 40 -16 0 -8 5 -12 10 -9 6 3 10 20 10
36 0 27 2 29 15 15 8 -8 15 -21 16 -28 1 -7 5 -2 9 12 l8 25 1 -27 c1 -14 -5
-29 -11 -31 -10 -4 -10 -6 0 -6 15 -1 17 -41 2 -41 -6 0 -21 -11 -34 -23 -24
-24 -37 -27 -191 -42 -46 -5 -121 -18 -185 -33 -14 -3 -31 -4 -39 -3 -7 1 -11
-2 -8 -7 4 -4 -4 -17 -15 -27 l-22 -18 29 -24 c23 -21 35 -24 64 -18 153 28
178 30 245 22 69 -8 96 -23 96 -53 0 -19 -237 -18 -340 2 -94 18 -117 27 -142
58 l-18 21 -1 -25 c-3 -64 6 -83 55 -104 71 -31 202 -52 381 -61 66 -3 139 -8
163 -11 l42 -5 0 -50 c0 -37 -4 -49 -15 -49 -13 0 -15 -19 -14 -125 1 -112 4
-127 21 -136 17 -9 18 -21 16 -157 l-3 -147 -30 3 c-16 2 -52 10 -80 18 -77
22 -185 29 -231 14 -42 -14 -84 -55 -84 -82 0 -24 58 -60 170 -106 52 -21 113
-48 135 -59 l39 -21 -314 -158 c-440 -221 -425 -214 -525 -244 -122 -38 -199
-76 -235 -117 -29 -32 -30 -38 -30 -128 0 -87 2 -96 27 -125 23 -27 26 -40 24
-86 -2 -50 0 -55 23 -64 22 -8 26 -16 26 -50 0 -22 3 -40 6 -40 10 0 34 28 35
42 1 17 17 -31 18 -56 1 -15 -2 -17 -10 -9 -16 16 -49 4 -49 -18 0 -17 11 -24
33 -20 4 0 7 -10 7 -24 0 -18 -5 -25 -20 -25 -25 0 -25 -11 -2 -37 15 -17 31
-19 118 -20 l101 -1 16 34 c16 32 37 46 37 24 0 -5 6 -10 14 -10 24 0 27 -16
11 -54 -13 -30 -20 -36 -36 -31 -11 4 -25 2 -32 -3 -7 -5 -25 -13 -42 -17
l-30 -8 30 -8 c17 -5 37 -10 45 -11 17 -3 56 -48 53 -60 -3 -8 12 -12 105 -28
34 -6 79 -8 99 -4 31 6 34 8 20 19 -9 7 -14 15 -10 18 9 10 82 8 123 -2 56
-15 156 -22 324 -23 87 0 152 -4 146 -8 -9 -6 -9 -9 1 -14 11 -5 11 -7 2 -12
-36 -16 -4 -25 103 -27 45 -1 67 4 90 19 34 23 103 48 199 70 54 13 112 16
260 14 105 -2 231 -3 280 -4 94 -1 120 3 170 23 17 7 46 15 65 18 19 2 44 8
55 13 43 17 146 40 182 40 21 0 56 5 78 11 22 5 63 14 90 18 28 5 79 17 115
28 70 20 77 20 299 -11 130 -18 293 -21 321 -6 44 24 31 115 -24 164 -29 26
-122 97 -162 124 -19 12 -34 27 -34 33 0 24 24 95 37 111 8 9 13 27 11 40 -3
23 -2 23 79 21 132 -2 398 -38 768 -103 179 -31 631 -137 815 -190 882 -256
1153 -319 1595 -370 485 -56 1100 -54 1398 5 61 12 86 13 119 4 40 -10 339
-134 443 -183 108 -51 231 -84 385 -105 86 -12 159 -21 163 -21 4 0 7 26 7 59
l0 58 -50 7 c-118 16 -465 123 -506 157 -6 5 -49 22 -95 39 -46 16 -145 54
-219 84 -74 31 -144 56 -155 56 -11 0 -52 -7 -92 -15 -155 -32 -334 -45 -643
-45 -168 0 -359 5 -425 10 -533 44 -831 100 -1460 275 -876 244 -1372 344
-1950 396 -71 7 -134 15 -138 19 -5 5 12 91 38 191 78 301 86 344 88 474 2
139 -8 494 -18 676 -7 120 -7 127 13 147 29 29 47 68 61 132 7 30 17 69 22 86
5 17 9 45 9 62 0 18 5 32 10 32 6 0 11 17 11 38 1 20 3 29 6 20 7 -27 43 -23
44 5 0 12 3 16 6 10 2 -8 22 -13 44 -13 21 0 39 -4 39 -10 0 -16 98 -12 125 6
17 11 25 12 25 5 0 -7 5 -9 10 -6 6 3 10 1 10 -5 0 -6 4 -9 8 -6 4 2 9 -4 9
-15 1 -12 -5 -19 -15 -19 -12 0 -13 -3 -4 -12 9 -9 15 -8 28 8 15 18 15 18 10
0 -6 -16 -4 -17 10 -5 14 12 14 14 -2 26 -17 12 -16 13 4 13 12 0 22 -4 22 -8
0 -5 13 -7 30 -4 19 3 27 8 23 16 -4 6 2 4 12 -4 17 -14 18 -13 11 5 -31 79
-30 81 56 143 58 43 81 66 53 56 -20 -8 -11 17 28 74 31 46 31 47 -19 100 -19
20 -25 21 -48 11 -28 -13 -50 -4 -27 10 20 13 6 61 -18 61 -10 0 -29 8 -42 19
-13 10 -38 25 -55 34 -17 9 -37 30 -44 47 -7 16 -17 30 -22 30 -12 0 -86 79
-93 100 -4 12 -13 16 -29 13 -21 -4 -23 -1 -25 44 -1 26 -6 50 -11 51 -6 2
-10 20 -10 40 0 36 10 49 60 75 9 4 5 5 -10 2 -87 -18 -443 -75 -447 -72 -2 3
-5 58 -6 123 -1 82 -6 118 -13 117 -7 -1 -29 -3 -50 -4 -22 -1 -58 -8 -81 -16
-37 -13 -40 -17 -28 -30 8 -8 15 -16 15 -18 0 -5 -24 -47 -51 -90 -30 -48 -49
-90 -59 -130 -5 -16 -22 -68 -40 -115 -17 -47 -38 -107 -45 -135 -7 -27 -21
-75 -30 -105 -9 -30 -28 -100 -41 -155 -34 -136 -67 -245 -76 -245 -5 0 -8
-14 -8 -30 0 -17 -6 -45 -13 -63 -8 -18 -12 -37 -10 -43 2 -6 -5 -18 -16 -28
-18 -17 -22 -17 -51 -3 l-30 16 22 -29 c13 -16 28 -29 34 -29 14 -1 40 -31 27
-31 -10 0 -94 68 -105 85 -19 30 -47 54 -50 45 -8 -26 -138 -31 -317 -12 -163
18 -256 9 -330 -30 -41 -22 -64 -28 -86 -23 -80 16 -238 34 -302 35 -61 0 -74
3 -83 19 -5 11 -20 21 -32 23 -21 3 -23 9 -26 71 -1 38 2 67 7 67 5 0 12 17
14 38 2 20 3 3 2 -38 -1 -41 0 -61 3 -45 l5 30 6 -30 c8 -38 35 -40 39 -2 2
15 9 27 18 27 8 0 14 5 14 10 0 12 131 14 146 2 5 -4 29 -5 54 -1 l45 6 -42 1
c-50 2 -59 22 -10 22 17 0 41 3 53 6 12 3 27 -1 37 -10 20 -20 54 -21 73 -1
20 19 68 19 88 0 17 -17 36 -20 36 -5 0 6 47 10 120 10 73 0 120 -4 120 -10 0
-18 121 -12 142 7 16 14 18 14 18 0 0 -8 -5 -17 -12 -19 -9 -3 -9 -6 0 -12 7
-4 12 -2 12 3 0 6 18 11 40 11 22 0 40 5 40 10 0 6 5 10 10 10 6 0 10 -10 10
-22 l1 -23 19 24 c13 15 26 21 36 17 14 -5 16 -1 11 29 -3 19 -2 35 4 35 8 0
11 -28 13 -112 1 -40 10 -41 22 -2 6 19 7 34 2 34 -5 0 1 10 12 22 26 28 97
174 146 301 20 50 46 117 59 147 23 54 76 214 111 335 38 133 36 174 -7 113
-33 -47 -41 -54 -69 -61 -14 -3 -35 -15 -46 -25 -11 -11 -37 -22 -57 -26 -20
-4 -37 -10 -37 -15 0 -12 -70 -42 -82 -35 -7 4 -8 -4 -3 -25 6 -30 5 -31 -12
-20 -15 9 -26 8 -50 -5 -30 -15 -31 -17 -20 -48 7 -18 37 -59 68 -92 74 -81
106 -129 91 -134 -7 -2 -12 -12 -12 -23 0 -10 -5 -19 -11 -19 -6 0 -17 -7 -26
-15 -8 -8 -18 -13 -23 -10 -4 3 -26 -2 -49 -10 -75 -26 -259 -41 -293 -23 -12
5 -26 4 -40 -3 -20 -11 -21 -10 -11 3 10 12 6 17 -30 33 -23 11 -46 18 -52 16
-5 -1 -7 0 -3 4 4 4 -7 19 -23 33 -26 21 -32 23 -41 11 -7 -11 -8 -9 -4 6 4
14 -2 26 -21 40 -14 11 -31 20 -37 20 -6 0 -11 5 -11 10 -1 6 -39 47 -86 92
-70 68 -88 81 -99 70 -12 -10 -12 -9 -2 4 7 9 10 24 6 33 -5 13 1 16 36 16 25
0 53 8 69 19 15 11 66 27 114 36 l87 16 38 -29 c20 -17 50 -44 66 -61 24 -25
38 -31 70 -31 31 0 37 3 26 10 -11 7 -6 8 16 4 21 -4 36 -1 46 10 9 8 18 13
21 10 3 -3 19 -3 36 1 33 7 41 30 19 55 -11 12 -10 12 5 1 11 -9 17 -10 17 -2
0 18 -4 26 -13 23 -5 -1 -6 2 -2 8 5 7 11 8 19 1 8 -6 19 -3 36 9 14 11 34 20
45 20 18 0 53 21 135 78 14 9 66 55 115 102 139 132 216 170 353 175 45 1 84
4 86 6 20 23 56 117 56 148 0 36 -4 42 -45 68 -25 16 -45 36 -45 46 0 10 -8
17 -18 17 -26 0 -52 32 -52 63 0 33 46 69 116 92 l50 16 -4 58 c-3 44 1 66 16
97 44 84 90 114 174 114 20 0 40 5 43 10 3 6 15 10 26 10 26 0 24 14 -9 52
-16 18 -38 48 -51 66 -24 34 -41 41 -41 17 0 -8 -8 -15 -17 -15 -28 -1 -48
-22 -59 -60 l-10 -35 -26 28 c-20 21 -34 27 -67 27 -47 0 -48 4 -22 44 26 39
11 76 -30 76 -29 0 -46 14 -30 25 5 3 16 19 24 35 15 28 14 30 -11 50 -21 15
-24 22 -13 29 8 5 9 11 3 15 -5 3 -13 -2 -16 -11 -6 -15 -8 -15 -16 -3 -8 13
-10 12 -10 -2 0 -18 -30 -24 -85 -19 -34 3 -155 60 -155 73 0 5 -27 8 -59 8
-38 0 -61 5 -65 13 -3 6 -3 2 -1 -9 7 -27 -37 -47 -86 -41 -30 3 -29 4 11 6
43 3 44 3 13 11 -51 12 -133 1 -133 -19 0 -18 -42 -41 -75 -41 -12 0 -30 -9
-40 -20 -10 -11 -24 -20 -32 -20 -8 0 -35 -9 -61 -20 -64 -26 -272 -34 -272
-9 0 13 -22 18 -117 28 -65 7 -128 19 -140 27 -25 16 -63 19 -63 4 0 -15 -73
-32 -81 -18 -5 8 -16 8 -40 -1 -24 -8 -34 -8 -40 0 -5 8 -27 9 -70 4 -35 -3
-179 -7 -319 -8 -239 -2 -257 -1 -289 18 -25 15 -35 17 -38 8 -7 -19 -23 -16
-81 12 -29 14 -61 25 -71 25 -11 0 -32 5 -48 11 -15 6 -37 13 -48 15 -11 2
-21 8 -23 14 -2 5 -17 10 -33 10 -25 0 -29 4 -30 28 l-1 27 -13 -30 c-8 -16
-14 -23 -15 -15 0 13 -1 13 -10 0 -6 -10 -10 45 -10 165 1 127 4 175 11 163 7
-13 23 -18 60 -18 l50 0 -3 38 -3 37 -167 3 c-110 2 -168 -1 -168 -8 0 -5 -9
-10 -20 -10 -11 0 -20 -5 -20 -11 0 -6 9 -8 20 -4 21 7 28 -10 7 -18 -9 -4 -9
-6 1 -6 7 -1 10 -5 7 -11 -4 -6 18 -10 59 -10 l66 0 -1 -147 c-1 -83 -4 -137
-8 -123 -5 14 -7 57 -6 95 1 39 0 59 -3 46 -2 -13 -9 -30 -16 -36 -9 -9 -12
-1 -11 38 0 31 -5 52 -12 54 -7 3 -13 -3 -13 -14 0 -13 -2 -15 -9 -5 -4 7 -6
23 -4 36 4 19 -2 24 -34 34 -28 8 -39 17 -40 33 -1 12 -9 29 -18 39 -9 10 -15
23 -13 30 2 7 -15 24 -37 36 -23 13 -42 33 -45 46 -6 24 -47 34 -43 11 2 -7
-2 -13 -8 -13 -6 0 -8 7 -5 16 3 9 7 82 7 162 1 85 4 134 9 117 7 -30 13 -25
23 20 3 11 5 5 6 -15 2 -55 21 -75 21 -22 0 23 5 42 10 42 6 0 10 -9 10 -20 0
-11 4 -20 9 -20 8 0 53 33 78 56 7 7 26 15 43 19 28 6 36 20 30 50 -1 5 2 6 7
2 11 -11 10 -4 12 -197 l1 -170 50 0 50 0 1 108 c1 88 3 102 12 80 10 -26 15
-28 69 -28 l58 0 0 40 0 40 -70 0 -70 0 0 40 0 40 66 0 c41 0 63 -4 59 -10 -3
-5 -2 -10 4 -10 5 0 13 5 16 10 3 6 14 10 23 9 14 0 13 -2 -3 -9 -11 -5 -15
-9 -8 -9 6 -1 10 -9 8 -20 -3 -14 1 -18 16 -14 10 3 19 9 19 14 0 13 62 -2 83
-19 9 -9 36 -16 60 -17 66 -4 94 -21 93 -58 0 -18 1 -67 2 -109 l2 -78 50 0
50 0 2 153 c0 99 3 136 8 107 6 -39 7 -40 8 -12 2 31 22 47 22 17 0 -12 7 -14
26 -9 17 4 29 2 35 -7 6 -10 9 -11 9 -1 0 6 7 12 15 12 21 0 19 20 -2 20 -35
1 31 29 67 30 20 0 41 5 48 12 7 7 12 8 12 3 0 -4 9 2 20 15 12 13 20 18 20
10 0 -9 9 -5 25 10 13 12 22 27 18 33 -4 6 -1 7 6 2 9 -5 5 -16 -17 -39 -45
-47 -62 -89 -62 -151 0 -85 47 -161 119 -191 43 -18 144 -18 179 0 35 18 96
82 89 93 -3 4 -22 17 -41 27 l-36 19 -30 -30 c-17 -17 -42 -34 -55 -37 -53
-13 -125 54 -125 117 0 58 54 117 106 117 34 0 84 -33 84 -55 0 -19 57 -2 84
25 19 18 19 20 2 38 -16 18 -16 20 0 26 9 4 19 4 22 1 3 -3 0 -5 -6 -5 -21 0
-1 -28 24 -34 14 -4 22 -11 19 -15 -3 -5 -14 -7 -25 -4 -11 3 -20 1 -20 -4 0
-12 26 -11 53 2 11 4 28 3 42 -5 14 -8 45 -11 79 -8 l56 5 -1 -66 c-2 -99 35
-171 103 -207 34 -18 98 -19 98 -1 0 9 3 8 9 -2 12 -19 51 -8 91 25 52 45 60
70 60 206 0 76 4 118 9 109 5 -8 7 -20 4 -28 -3 -8 -2 -13 3 -11 15 4 54 -13
54 -23 0 -5 11 -9 25 -9 22 0 67 -21 85 -40 11 -11 42 -4 55 13 11 16 13 16
19 1 3 -8 6 -69 6 -135 l0 -119 49 0 c47 0 50 2 53 28 l4 27 14 -28 c13 -27
15 -28 88 -25 68 3 76 5 83 26 5 13 5 21 1 18 -5 -3 -8 5 -8 17 1 21 -3 22
-91 25 l-93 3 2 97 c1 53 3 80 5 58 6 -52 24 -71 40 -42 12 20 12 19 9 -9 -2
-16 -1 -24 1 -17 3 8 11 11 20 8 8 -3 17 -6 19 -6 2 0 4 -8 5 -17 0 -11 3 -13
6 -5 6 16 29 16 36 -1 3 -7 23 -19 45 -26 36 -12 43 -11 88 11 27 14 66 28 86
32 20 4 39 12 42 19 3 9 7 8 15 -2 10 -15 10 -16 24 54 3 11 5 -40 6 -112 l1
-133 49 0 c28 0 52 4 55 8 3 5 6 71 7 148 1 130 2 140 20 140 10 0 19 -4 19
-8 0 -4 -7 -8 -15 -8 -17 0 -20 -16 -5 -25 6 -3 10 -1 10 5 0 6 4 9 9 6 5 -4
11 -2 13 3 3 10 61 22 111 23 15 1 27 4 27 8 0 4 21 10 48 13 60 8 93 15 100
22 3 2 11 0 19 -6 10 -9 13 -8 13 1 0 8 2 11 5 8 3 -2 -24 -76 -60 -164 -35
-87 -65 -162 -65 -166 0 -5 23 -8 50 -8 48 0 51 2 67 35 l17 35 78 0 79 0 15
-35 c13 -33 17 -35 62 -35 52 0 67 7 54 24 -14 18 -73 174 -75 195 -1 11 -3
18 -6 15 -7 -7 -40 77 -40 104 -1 12 4 22 10 22 5 0 8 -4 5 -9 -3 -4 5 -13 19
-19 20 -9 24 -8 28 6 4 15 5 15 6 1 1 -16 34 -33 59 -30 7 1 15 -5 18 -14 7
-17 84 -22 84 -5 0 16 73 32 82 17 6 -9 8 -9 8 1 0 20 34 9 42 -13 3 -11 6
-82 7 -158 l1 -138 47 3 c40 3 48 6 53 27 l5 24 12 -27 c11 -22 19 -26 53 -26
78 0 153 48 191 122 36 70 19 159 -44 228 -22 24 -24 28 -6 12 18 -16 29 -20
34 -12 5 8 11 8 21 -1 11 -9 14 -8 14 2 1 10 4 8 11 -4 5 -9 7 -23 4 -30 -4
-6 0 -3 9 7 14 18 21 18 88 7 46 -7 78 -18 87 -29 12 -15 12 -15 6 6 -7 25 2
28 28 8 15 -12 17 -32 17 -165 l0 -152 143 3 c107 2 141 6 139 16 -1 6 3 12 8
12 6 0 8 11 4 26 -4 16 -3 25 2 21 6 -3 10 3 11 13 1 13 -3 17 -13 13 -8 -3
-14 -9 -14 -14 0 -5 -40 -9 -90 -9 l-90 0 1 63 c0 52 2 58 11 40 10 -20 19
-23 68 -23 31 0 59 2 61 5 3 2 3 20 1 40 l-4 35 -69 0 -69 0 0 40 0 40 63 0
c49 0 68 -4 80 -18 10 -10 16 -21 15 -23 -2 -2 2 0 7 6 34 34 54 45 69 39 10
-4 13 -10 8 -13 -6 -3 16 -6 49 -6 32 0 59 3 59 6 0 5 65 39 76 39 3 0 4 -29
2 -64 -1 -35 0 -62 3 -60 4 2 14 -5 24 -16 10 -11 48 -30 84 -41 36 -11 72
-23 79 -28 16 -10 12 -46 -5 -46 -6 0 -14 -3 -18 -7 -10 -9 -56 9 -81 33 l-22
21 -41 -28 c-23 -14 -41 -30 -41 -35 0 -5 14 -18 30 -31 31 -22 39 -38 19 -38
-5 0 -8 4 -5 9 3 5 -1 11 -9 15 -8 3 -17 2 -19 -3 -8 -12 -126 7 -142 24 -19
19 -34 19 -34 1 0 -8 -5 -18 -12 -22 -7 -5 -8 -3 -3 6 5 9 4 11 -4 6 -6 -4 -8
-12 -5 -18 5 -7 1 -9 -9 -5 -10 4 -18 -1 -22 -14 -4 -13 -15 -19 -36 -19 -18
0 -28 -4 -24 -10 3 -5 2 -10 -4 -10 -5 0 -12 6 -15 13 -5 10 -7 10 -12 0 -3
-8 -24 -13 -50 -13 -25 0 -43 -4 -40 -8 3 -5 -22 -37 -54 -72 -33 -34 -60 -69
-60 -76 0 -8 -4 -14 -9 -14 -5 0 -13 -9 -16 -21 -6 -19 -8 -19 -24 -5 -10 9
-22 16 -27 16 -5 0 -1 -5 9 -11 19 -11 24 -49 6 -49 -8 0 -8 -5 1 -15 11 -13
8 -15 -19 -15 l-32 0 21 -31 c12 -16 19 -33 15 -37 -4 -4 -10 -1 -12 6 -3 6
-9 12 -15 12 -5 0 -24 11 -41 23 -18 13 -58 32 -90 41 -31 10 -67 26 -79 36
l-22 17 27 17 c25 17 28 17 71 -5 45 -22 46 -22 86 -4 22 10 40 21 40 25 0 11
-43 47 -77 64 -20 10 -57 16 -99 16 -65 0 -68 -1 -106 -40 -29 -32 -38 -49
-38 -76 0 -66 34 -95 160 -136 37 -12 45 -19 45 -39 0 -35 -59 -39 -100 -7
-26 21 -80 34 -70 17 3 -3 -6 -11 -19 -17 -13 -6 -26 -20 -29 -31 -3 -12 -2
-19 3 -16 4 3 14 -3 21 -12 37 -44 159 -68 226 -42 15 6 30 10 32 9 2 -1 8 5
13 14 5 9 13 14 19 11 5 -3 6 1 3 10 -4 9 -3 15 2 14 22 -4 34 2 35 19 0 11 2
12 6 4 3 -7 -2 -21 -11 -31 -9 -10 -14 -25 -10 -35 7 -18 -11 -22 -22 -5 -4 7
-17 -1 -35 -20 -28 -31 -49 -40 -49 -21 0 5 -7 7 -16 3 -16 -6 -16 -7 0 -18 9
-7 16 -16 16 -20 0 -4 -7 -2 -15 5 -9 7 -25 10 -41 6 -21 -6 -25 -4 -21 8 4
10 1 13 -8 10 -8 -3 -11 -12 -8 -20 8 -21 -51 -23 -122 -5 -62 16 -105 14
-105 -5 0 -13 -10 -15 -57 -13 -32 1 -104 2 -160 1 -88 -2 -103 -4 -103 -18 0
-14 -8 -16 -57 -10 -32 4 -62 11 -67 16 -14 14 -43 12 -49 -2 -4 -10 -8 -9
-16 2 -8 12 -11 8 -11 -17 0 -29 6 -35 52 -58 29 -15 73 -43 96 -62 43 -35 46
-36 120 -34 66 1 146 -12 202 -33 8 -4 28 5 44 19 17 14 36 23 44 20 7 -3 16
-5 18 -5 2 0 4 -20 4 -44 0 -40 3 -46 43 -71 l42 -29 -43 -19 c-34 -14 -42
-22 -36 -35 4 -9 9 -29 11 -44 4 -18 10 -25 19 -21 9 3 19 -7 29 -30 10 -24
24 -38 47 -46 l33 -12 -33 -25 c-23 -18 -32 -34 -32 -55 0 -31 -17 -38 -39
-16 -6 6 -29 12 -49 12 -33 0 -37 3 -40 27 -2 17 -25 47 -65 85 -34 32 -74 72
-88 90 -18 22 -30 29 -39 23 -11 -7 -8 -12 13 -21 34 -15 34 -20 -3 -41 -42
-24 -38 -40 16 -66 32 -16 49 -32 60 -57 20 -49 18 -58 -10 -51 -40 10 -56 -2
-56 -44 0 -51 -17 -98 -52 -143 -28 -35 -30 -43 -22 -80 9 -41 11 -42 51 -45
23 -2 51 2 63 8 18 10 20 8 20 -18 0 -49 -78 -118 -210 -187 -111 -58 -116
-62 -142 -115 -15 -30 -28 -58 -28 -62 0 -5 19 -8 43 -8 48 0 67 -13 67 -47 0
-12 6 -26 13 -30 7 -4 21 -21 32 -38 29 -46 127 -145 137 -139 4 3 7 0 6 -7
-2 -7 4 -13 12 -14 8 0 14 -8 12 -17 -1 -9 6 -22 16 -30 11 -7 51 -56 90 -108
40 -52 85 -108 102 -125 46 -47 66 -125 38 -153 -8 -8 -8 -15 -1 -24 6 -7 14
-28 18 -45 3 -18 11 -33 16 -33 6 0 8 -4 5 -9 -7 -11 18 -134 26 -126 3 3 3
-6 1 -20 -4 -17 -1 -25 8 -25 9 0 10 -3 4 -8 -6 -4 -8 -38 -4 -87 5 -72 6 -74
7 -23 3 103 42 145 60 66 l10 -43 1 43 c1 47 11 51 57 27 32 -16 104 -20 104
-6 0 6 21 1 46 -10 38 -17 57 -19 120 -14 71 7 74 6 74 -14 0 -20 5 -21 99
-21 56 0 103 -4 106 -10 13 -21 35 -10 35 17 0 25 1 25 18 10 10 -10 28 -17
40 -17 13 0 22 -6 22 -16 0 -13 3 -13 29 2 26 16 32 16 77 0 26 -9 50 -12 53
-7 3 5 39 12 80 16 57 6 75 4 82 -6 7 -11 12 -12 29 -1 24 15 50 16 50 2 0 -5
18 -10 40 -10 22 0 40 5 40 10 0 7 34 10 91 9 62 -1 94 2 99 11 5 8 74 12 251
14 134 1 252 6 262 10 13 6 17 3 17 -13 0 -25 15 -27 37 -5 13 13 37 15 127
13 61 -1 121 1 134 5 18 6 22 4 22 -13 0 -18 6 -21 40 -21 22 0 40 5 40 10 0
6 18 10 40 10 22 0 40 -4 40 -10 0 -13 127 -13 135 0 3 6 28 10 56 10 38 0 49
-4 49 -16 0 -13 5 -12 34 5 18 12 36 21 40 21 3 0 6 -25 6 -55 l0 -55 40 0
c33 0 40 3 40 20 0 11 4 20 9 20 19 0 71 -23 71 -31 0 -5 18 -9 39 -9 33 0 40
4 43 23 l3 22 20 -22 c20 -23 55 -31 55 -13 0 6 18 10 40 10 22 0 40 -4 40
-10 0 -6 41 -10 104 -10 59 0 108 -4 111 -10 3 -5 30 -10 60 -10 33 0 55 -5
58 -12 10 -27 27 47 28 120 1 91 16 72 19 -23 2 -33 6 -73 10 -90 l8 -30 1 28
c1 25 4 27 41 27 22 0 40 -4 40 -10 0 -5 18 -10 40 -10 22 0 40 5 40 10 0 6
18 10 40 10 30 0 40 -4 40 -16 0 -15 2 -15 25 0 34 22 190 23 199 1 4 -10 20
-15 51 -15 33 0 45 4 45 15 0 13 20 15 120 15 73 0 120 -4 120 -10 0 -5 20
-10 45 -10 25 0 45 5 45 10 0 6 9 10 20 10 11 0 20 7 20 15 0 12 13 15 55 15
l55 0 0 1825 0 1825 -6400 0 -6400 0 0 -2240z m5365 2050 c-3 -5 -12 -10 -18
-10 -7 0 -6 4 3 10 19 12 23 12 15 0z m-962 -7 c-7 -2 -21 -2 -30 0 -10 3 -4
5 12 5 17 0 24 -2 18 -5z m797 -3 c0 -5 -5 -10 -11 -10 -5 0 -7 5 -4 10 3 6 8
10 11 10 2 0 4 -4 4 -10z m2867 4 c-3 -3 -12 -4 -19 -1 -8 3 -5 6 6 6 11 1 17
-2 13 -5z m-4550 -23 c0 -11 -5 -18 -9 -15 -4 3 -5 11 -1 19 7 21 12 19 10 -4z
m1910 -6 c0 -8 -4 -12 -9 -9 -5 3 -6 10 -3 15 9 13 12 11 12 -6z m-1926 -22
c13 -16 12 -17 -3 -4 -10 7 -18 15 -18 17 0 8 8 3 21 -13z m1569 -3 c0 -5 -4
-10 -10 -10 -5 0 -10 5 -10 10 0 6 5 10 10 10 6 0 10 -4 10 -10z m-1527 -15
c4 10 10 15 14 12 3 -4 1 -13 -6 -20 -15 -18 -3 -50 16 -43 8 3 11 1 8 -4 -3
-6 -1 -10 6 -10 17 0 59 -40 59 -57 0 -7 5 -13 10 -13 6 0 10 -18 10 -40 0
-34 -7 -48 -41 -83 -23 -23 -39 -36 -35 -29 9 16 5 15 -30 -3 -22 -11 -30 -12
-37 -2 -6 9 -7 8 -4 -3 2 -8 17 -18 33 -22 24 -6 22 -7 -9 -3 -22 2 -35 0 -32
-6 4 -5 63 -9 132 -9 70 0 124 -2 122 -5 -3 -2 -94 -5 -202 -6 -113 0 -195 -5
-191 -10 3 -5 0 -9 -5 -9 -6 0 -11 4 -11 9 0 5 -12 12 -27 14 -16 2 0 5 34 6
34 0 65 6 68 11 5 8 12 7 23 -2 10 -8 13 -9 9 -1 -5 7 6 22 27 38 70 54 96
166 56 245 -11 22 -20 45 -19 52 0 7 4 4 8 -6 7 -19 8 -19 14 -1z m5287 6 c0
-6 -4 -12 -8 -15 -5 -3 -9 1 -9 9 0 8 4 15 9 15 4 0 8 -4 8 -9z m-3310 -11 c0
-5 -4 -10 -10 -10 -5 0 -10 5 -10 10 0 6 5 10 10 10 6 0 10 -4 10 -10z m440
-94 c0 -96 -2 -105 -25 -130 -28 -31 -64 -33 -96 -7 -22 18 -24 28 -27 126 -3
82 -1 106 8 100 17 -11 100 -12 100 -1 0 4 7 6 15 2 8 -3 15 -1 15 4 0 6 2 10
5 10 3 0 5 -47 5 -104z m-2361 67 c0 -25 -1 -25 -8 -8 -5 11 -7 23 -4 28 8 14
13 7 12 -20z m-225 5 c-5 -7 -2 -9 9 -5 41 16 86 -75 65 -133 -21 -61 -64 -90
-134 -90 l-34 0 0 89 c0 112 3 121 46 121 19 0 34 5 34 11 0 7 -14 8 -40 4
-26 -4 -40 -3 -40 4 0 7 21 11 51 11 36 0 48 -3 43 -12z m3493 -10 c-3 -8 -6
-5 -6 6 -1 11 2 17 5 13 3 -3 4 -12 1 -19z m206 15 c-7 -2 -19 -2 -25 0 -7 3
-2 5 12 5 14 0 19 -2 13 -5z m1040 -5 c32 -17 43 -30 57 -70 28 -77 -37 -158
-126 -158 l-44 0 0 120 0 120 46 0 c25 0 55 -5 67 -12z m1130 3 c5 0 5 -5 2
-11 -3 -6 1 -7 9 -4 9 3 16 1 16 -5 0 -6 8 -11 17 -11 14 0 14 -3 5 -12 -10
-10 -15 -10 -21 1 -5 8 -14 10 -21 6 -9 -6 -6 -12 11 -22 l24 -14 -30 5 c-48
7 -85 24 -92 42 -10 27 14 35 80 25z m-4770 -16 c-3 -9 -8 -14 -10 -11 -3 3
-2 9 2 15 9 16 15 13 8 -4z m-664 -117 c0 -40 -3 -67 -6 -60 -7 17 -21 15 -26
-5 -4 -17 -5 -17 -6 0 0 10 6 20 14 23 21 9 19 27 -2 20 -17 -6 -17 -5 0 8 20
16 23 30 4 23 -10 -4 -10 3 2 29 9 18 17 33 19 34 1 0 2 -33 1 -72z m3670 -10
c1 -5 -17 -8 -39 -8 -22 0 -40 2 -40 5 0 3 10 25 22 48 l21 42 18 -40 c10 -22
18 -43 18 -47z m1831 61 c0 -6 -4 -7 -10 -4 -5 3 -10 11 -10 16 0 6 5 7 10 4
6 -3 10 -11 10 -16z m33 -8 c3 -14 1 -18 -9 -14 -8 3 -14 11 -14 19 0 21 17
17 23 -5z m-5533 -141 c0 -5 -2 -10 -4 -10 -3 0 -8 5 -11 10 -3 6 -1 10 4 10
6 0 11 -4 11 -10z m-516 -56 c3 -8 2 -12 -4 -9 -6 3 -10 10 -10 16 0 14 7 11
14 -7z m5626 -14 c-33 -6 -15 -8 65 -7 64 0 116 4 124 11 11 8 13 8 7 -2 -6
-10 14 -13 99 -11 58 1 109 -1 112 -5 7 -6 -67 -10 -150 -8 -39 1 -47 -1 -38
-12 8 -9 7 -13 -4 -13 -7 0 -13 5 -12 11 2 12 -12 14 -178 15 -109 2 -118 3
-95 16 14 8 45 14 70 13 l45 -1 -45 -7z m-5642 -17 c-10 -2 -26 -2 -35 0 -10
3 -2 5 17 5 19 0 27 -2 18 -5z m529 1 c-3 -3 -12 -4 -19 -1 -8 3 -5 6 6 6 11
1 17 -2 13 -5z m102 2 c-10 -9 -89 -15 -89 -6 0 6 21 10 47 10 25 0 44 -2 42
-4z m5484 -3 c-7 -2 -19 -2 -25 0 -7 3 -2 5 12 5 14 0 19 -2 13 -5z m-5878
-23 c3 -5 -1 -10 -10 -10 -9 0 -13 5 -10 10 3 6 8 10 10 10 2 0 7 -4 10 -10z
m5309 2 c3 -5 -1 -9 -9 -9 -8 0 -15 4 -15 9 0 4 4 8 9 8 6 0 12 -4 15 -8z
m-4637 -299 c-3 -10 -5 -2 -5 17 0 19 2 27 5 18 2 -10 2 -26 0 -35z m4263 -73
c0 -5 -2 -10 -4 -10 -3 0 -8 5 -11 10 -3 6 -1 10 4 10 6 0 11 -4 11 -10z
m-4130 -130 c0 -5 -6 -10 -14 -10 -8 0 -18 5 -21 10 -3 6 3 10 14 10 12 0 21
-4 21 -10z m3960 -60 c0 -5 -10 -10 -22 -10 -19 0 -20 2 -8 10 19 13 30 13 30
0z m-1817 -7 c-13 -2 -33 -2 -45 0 -13 2 -3 4 22 4 25 0 35 -2 23 -4z m527
-13 c0 -5 -2 -10 -4 -10 -3 0 -8 5 -11 10 -3 6 -1 10 4 10 6 0 11 -4 11 -10z
m-1474 -204 l171 -13 66 -47 c37 -26 67 -49 67 -51 0 -11 -75 18 -120 47 -55
36 -55 36 -200 42 -80 3 -188 9 -240 12 l-95 6 -72 -62 c-40 -34 -73 -65 -73
-70 0 -4 46 -10 103 -14 335 -23 312 -20 346 -52 17 -16 31 -34 31 -41 0 -6 5
-15 12 -19 7 -4 8 -3 4 4 -4 7 -3 12 3 12 17 0 21 -18 5 -24 -25 -10 -174 -7
-174 3 0 5 9 7 19 4 11 -3 28 0 38 6 15 8 10 10 -24 11 -24 0 -43 5 -43 10 0
6 12 8 28 5 27 -5 27 -5 2 5 -13 6 -28 16 -32 23 -5 8 -9 5 -14 -8 -8 -20 -23
-35 -37 -35 -5 0 -6 4 -2 9 3 6 -5 15 -17 22 -22 12 -22 11 -8 -6 14 -17 14
-18 -10 -4 -23 13 -160 21 -160 9 0 -3 20 -17 43 -32 24 -15 52 -38 63 -49 10
-12 -15 0 -56 28 -69 46 -79 50 -125 47 -28 -2 -117 -8 -200 -14 -82 -6 -206
-15 -275 -20 -69 -6 -168 -12 -220 -15 -52 -3 -137 -8 -188 -13 -85 -7 -93 -6
-89 10 4 14 1 15 -22 7 -14 -6 -51 -7 -84 -4 -57 7 -57 7 -35 24 16 12 50 20
108 24 47 4 254 20 460 37 206 16 387 30 402 30 16 0 46 16 78 43 28 23 88 61
133 84 78 40 86 42 172 42 50 0 167 -6 261 -13z m-1711 -107 c25 -12 52 -31
60 -42 17 -24 20 -77 5 -77 -5 0 -10 10 -10 23 -1 31 -18 51 -67 76 -50 25
-74 26 -114 5 -44 -22 -60 -11 -19 14 44 28 88 28 145 1z m2257 -102 c38 -23
68 -44 68 -47 0 -5 -247 -31 -292 -30 -15 0 -18 10 -18 63 0 35 2 66 5 68 2 3
42 1 87 -4 72 -7 92 -14 150 -50z m-2282 37 c0 -2 -28 -3 -62 -3 -56 2 -58 3
-23 8 38 6 85 3 85 -5z m-186 -31 c-9 -21 -18 -44 -21 -50 -3 -7 -13 -13 -22
-13 -14 0 -14 -2 -1 -11 11 -8 -1 -9 -44 -4 -33 3 -62 8 -65 11 -11 11 25 24
54 20 35 -6 56 7 79 52 23 45 40 40 20 -5z m1684 -71 l27 -23 -35 18 c-20 10
-47 29 -60 42 l-25 24 33 -19 c18 -10 45 -29 60 -42z m3312 16 c0 -44 12 -66
41 -78 42 -18 44 -27 7 -46 -41 -21 -48 -31 -48 -71 0 -38 -14 -42 -39 -11
-23 28 -41 16 -41 -28 0 -40 -10 -42 -45 -12 -19 17 -36 21 -66 19 l-40 -3 16
31 c14 28 14 34 0 67 -20 48 -20 47 18 41 56 -9 66 7 42 66 -7 17 -4 18 39 12
41 -6 50 -4 67 14 26 28 49 27 49 -1z m-5187 -25 c-13 -2 -35 -2 -50 0 -16 2
-5 4 22 4 28 0 40 -2 28 -4z m57 -38 c170 -15 227 -25 139 -25 -69 1 -391 28
-397 34 -9 10 77 7 258 -9z m-247 -172 c-13 -2 -33 -2 -45 0 -13 2 -3 4 22 4
25 0 35 -2 23 -4z m2287 -193 c0 -45 -20 -54 -38 -17 -10 21 -11 21 -11 -6 -1
-40 -16 -26 -19 17 -2 27 1 36 13 36 9 0 20 -10 25 -22 8 -22 9 -22 9 5 1 43
21 31 21 -13z m60 30 c0 -5 -4 -10 -10 -10 -5 0 -10 -13 -10 -30 0 -16 -4 -30
-10 -30 -5 0 -10 11 -10 24 0 13 -3 31 -6 40 -5 12 0 16 20 16 14 0 26 -4 26
-10z m48 3 c-21 -5 -24 -23 -5 -24 10 0 10 -2 0 -6 -18 -7 -16 -23 2 -23 8 0
15 -4 15 -10 0 -5 -11 -10 -25 -10 -22 0 -25 4 -25 40 0 37 2 40 28 39 16 -1
20 -3 10 -6z m67 -30 c0 -31 -14 -48 -16 -20 0 10 -2 10 -6 0 -10 -25 -23 -12
-23 23 0 31 3 35 23 32 18 -2 22 -9 22 -35z m58 19 c14 -15 14 -19 3 -19 -8 0
-17 9 -19 19 -3 10 -4 18 -3 18 2 0 10 -8 19 -18z m-313 -33 c0 -24 -4 -38
-10 -34 -5 3 -10 22 -10 41 0 19 5 34 10 34 6 0 10 -18 10 -41z m338 -79 c9
-26 8 -30 -6 -30 -9 0 -27 -3 -39 -6 -21 -6 -23 -3 -23 30 0 20 5 36 11 36 7
0 10 -12 7 -29 -6 -38 8 -30 17 9 8 35 19 32 33 -10z m-151 -32 c-2 -13 -4 -3
-4 22 0 25 2 35 4 23 2 -13 2 -33 0 -45z m41 40 l11 -23 0 23 c1 12 6 22 12
22 6 0 8 -9 5 -20 -3 -11 -9 -29 -12 -40 -9 -31 -21 -24 -32 20 -11 43 -2 54
16 18z m-123 -28 c0 -31 -3 -35 -25 -35 -29 0 -40 36 -19 61 21 26 44 12 44
-26z m35 10 c0 -22 5 -30 18 -30 14 0 15 -2 2 -10 -29 -19 -40 -11 -40 30 0
22 5 40 10 40 6 0 10 -13 10 -30z m-102 -12 c-1 -34 -12 -48 -38 -48 -12 1
-12 3 3 14 9 7 17 23 17 34 0 11 -8 23 -17 25 -12 3 -8 5 9 6 24 1 27 -2 26
-31z m-2324 -77 c-4 -14 -7 -29 -6 -32 1 -4 6 -37 12 -74 6 -37 17 -79 24 -94
12 -22 12 -28 0 -38 -36 -34 -85 51 -92 163 -4 71 -4 74 20 83 15 6 29 21 34
38 7 27 8 27 12 4 2 -12 0 -35 -4 -50z m4523 -207 c-3 -3 -12 -4 -19 -1 -8 3
-5 6 6 6 11 1 17 -2 13 -5z m-1644 -21 c-7 -2 -19 -2 -25 0 -7 3 -2 5 12 5 14
0 19 -2 13 -5z m50 -140 c-7 -2 -19 -2 -25 0 -7 3 -2 5 12 5 14 0 19 -2 13 -5z
m-543 -104 c0 -5 -4 -9 -10 -9 -5 0 -10 7 -10 16 0 8 5 12 10 9 6 -3 10 -10
10 -16z m-9 -75 c-9 -28 -9 -29 -10 -3 -1 14 2 29 6 32 11 12 13 2 4 -29z
m2398 19 c-6 -7 -15 -10 -20 -7 -13 8 -3 21 15 21 12 0 13 -4 5 -14z m3818
-45 c-2 -13 -4 -3 -4 22 0 25 2 35 4 23 2 -13 2 -33 0 -45z m-6033 -6 c3 -5
-1 -9 -9 -9 -8 0 -12 4 -9 9 3 4 7 8 9 8 2 0 6 -4 9 -8z m-186 -32 c-7 -10
-14 -17 -17 -15 -4 4 18 35 25 35 2 0 -1 -9 -8 -20z m1918 -80 c-8 -21 -24
-53 -35 -71 l-21 -34 3 40 c2 22 8 49 14 60 5 11 8 25 6 32 -2 7 6 26 19 44
l23 31 3 -32 c2 -18 -3 -49 -12 -70z m-2016 33 c0 -12 -2 -12 -15 1 -8 8 -15
17 -15 20 0 3 7 3 15 0 8 -4 15 -13 15 -21z m1109 -130 c-1 -38 -1 -38 -9 -8
-4 17 -8 24 -9 16 0 -8 -4 -12 -7 -8 -9 9 3 37 16 37 5 0 9 -17 9 -37z m841
23 c0 -13 -24 -42 -88 -111 -12 -12 -22 -42 -26 -75 -8 -68 -12 -103 -14 -112
-1 -5 -9 -8 -17 -8 -8 0 -15 -7 -15 -15 0 -8 -6 -15 -13 -15 -37 0 -49 58 -22
110 8 16 17 44 19 62 3 31 12 41 49 52 9 3 17 15 17 26 0 11 7 20 15 20 8 0
15 7 15 15 0 20 41 63 63 64 9 1 17 -5 17 -13z m4367 -38 c-2 -13 -4 -5 -4 17
-1 22 1 32 4 23 2 -10 2 -28 0 -40z m-6402 32 c-3 -5 -11 -10 -16 -10 -6 0 -7
5 -4 10 3 6 11 10 16 10 6 0 7 -4 4 -10z m625 -34 c-7 -7 -13 -7 -20 0 -6 6
-3 10 10 10 13 0 16 -4 10 -10z m-690 -17 c0 -6 -4 -7 -10 -4 -5 3 -10 11 -10
16 0 6 5 7 10 4 6 -3 10 -11 10 -16z m-687 4 c-7 -2 -19 -2 -25 0 -7 3 -2 5
12 5 14 0 19 -2 13 -5z m1907 -3 c0 -5 -5 -10 -11 -10 -5 0 -7 5 -4 10 3 6 8
10 11 10 2 0 4 -4 4 -10z m-73 -6 c-3 -3 -12 -4 -19 -1 -8 3 -5 6 6 6 11 1 17
-2 13 -5z m1332 -381 c2 -2 -4 -3 -15 -3 -11 0 -25 9 -32 20 -13 21 -12 21 15
4 15 -10 30 -19 32 -21z m-3314 -13 c3 -5 -1 -10 -9 -10 -9 0 -16 5 -16 10 0
6 4 10 9 10 6 0 13 -4 16 -10z m6918 -97 c-13 -2 -33 -2 -45 0 -13 2 -3 4 22
4 25 0 35 -2 23 -4z m1317 -2 c0 -6 -4 -13 -10 -16 -5 -3 -10 1 -10 9 0 9 5
16 10 16 6 0 10 -4 10 -9z m-963 -63 c-3 -7 -5 -2 -5 12 0 14 2 19 5 13 2 -7
2 -19 0 -25z m-7064 -25 c-7 -2 -19 -2 -25 0 -7 3 -2 5 12 5 14 0 19 -2 13 -5z
m80 -10 c-7 -2 -19 -2 -25 0 -7 3 -2 5 12 5 14 0 19 -2 13 -5z m725 -24 c78
-11 82 -12 67 -29 -22 -24 -86 -31 -177 -18 -74 11 -78 12 -78 37 0 25 2 26
52 23 29 -1 90 -7 136 -13z m-76 -202 c-18 -18 -32 -40 -32 -49 0 -9 -4 -18
-9 -20 -9 -3 -141 -213 -141 -224 0 -3 -16 -26 -35 -51 -25 -33 -35 -40 -35
-27 0 11 9 25 21 32 14 9 18 19 14 30 -4 9 -6 63 -6 118 2 83 -1 103 -14 107
-11 5 -15 21 -15 56 l0 50 78 4 c42 1 106 4 141 5 l65 2 -32 -33z m900 -296
c92 -23 197 -47 234 -54 l67 -12 59 -98 c56 -92 61 -106 79 -210 10 -62 24
-133 31 -159 10 -43 9 -51 -16 -108 -29 -64 -97 -277 -126 -395 l-17 -70 -139
4 c-133 3 -140 4 -164 29 -33 33 -131 77 -238 106 -48 13 -148 53 -222 89 -74
35 -202 97 -285 137 -82 40 -173 83 -202 96 -81 38 -80 54 9 138 41 39 122
134 178 211 57 77 143 181 192 232 48 51 88 97 88 102 0 6 56 9 153 7 139 -3
167 -7 319 -45z m-1159 -780 c17 -15 48 -42 67 -59 l35 -31 -72 -1 -73 0 0 60
c0 33 2 60 5 60 3 0 20 -13 38 -29z m-207 -44 c-6 -40 -10 -45 -38 -51 -17 -3
-42 -6 -57 -6 -24 1 -22 5 34 55 32 30 61 52 63 50 3 -2 1 -24 -2 -48z m-56
-250 c0 -10 -50 -148 -66 -179 -9 -21 -26 -40 -36 -44 -10 -3 -32 -17 -49 -31
-30 -26 -31 -26 -157 -19 -189 9 -212 14 -212 41 0 14 13 33 33 48 17 15 66
58 107 96 l75 69 95 7 c52 3 104 7 115 9 29 5 95 7 95 3z m637 -28 c12 -13 23
-26 23 -29 0 -4 -35 -10 -78 -14 -43 -4 -128 -15 -189 -25 -106 -16 -111 -16
-122 0 -7 12 -7 20 -1 24 6 3 10 22 10 42 l0 36 167 -6 c153 -6 168 -8 190
-28z m-1407 -88 c0 -11 7 -27 16 -35 8 -9 11 -16 6 -16 -5 0 -12 -9 -15 -21
-5 -18 -11 -20 -39 -14 -57 11 -128 36 -128 45 0 7 128 57 153 59 4 1 7 -8 7
-18z m2433 -38 l67 -6 0 -45 c0 -25 5 -60 12 -79 10 -29 9 -35 -9 -55 -42 -47
-57 -114 -33 -158 8 -16 4 -21 -35 -36 -38 -14 -64 -16 -158 -10 -102 6 -167
21 -167 37 0 4 8 6 18 5 13 -1 18 8 20 40 2 32 8 43 23 47 16 4 19 14 19 56 0
31 -4 51 -11 51 -6 0 3 16 19 35 20 22 33 50 37 80 l7 45 62 0 c33 0 91 -3
129 -7z m-532 -19 c-43 -13 -61 -12 -61 7 0 5 24 9 53 8 l52 -1 -44 -14z
m-351 -38 c0 -32 -3 -35 -37 -40 -53 -8 -248 -24 -371 -31 l-104 -6 4 23 c3
25 3 25 163 49 119 18 265 36 308 38 36 1 37 0 37 -33z m-727 -31 c-3 -9 -8
-14 -10 -11 -3 3 -2 9 2 15 9 16 15 13 8 -4z m1117 -164 c0 -5 14 -12 30 -16
33 -7 37 -16 15 -35 -14 -12 -21 -40 -10 -40 3 0 14 5 24 12 15 9 22 8 36 -6
13 -13 15 -20 6 -29 -8 -8 -11 -7 -11 4 0 12 -2 12 -9 0 -8 -12 -12 -12 -25
-2 -8 7 -30 13 -49 14 -36 2 -66 30 -47 42 6 3 10 19 10 36 0 19 5 29 15 29 8
0 15 -4 15 -9z m-1992 -54 c2 -20 9 -37 15 -37 7 -1 0 -8 -16 -16 -15 -8 -32
-12 -37 -9 -6 3 -10 1 -10 -5 0 -6 -4 -9 -9 -6 -5 3 -7 15 -4 26 3 12 -1 22
-11 26 -23 9 -21 44 3 44 11 0 23 5 26 11 15 23 40 4 43 -34z m1557 -32 c22
-8 36 -14 30 -15 -5 0 -4 -4 4 -9 9 -6 10 -11 2 -15 -6 -4 -11 -2 -11 4 0 10
-77 9 -96 -2 -5 -3 -58 -3 -119 1 -60 3 -140 6 -177 6 -70 0 -97 14 -30 16 35
1 341 25 352 27 3 1 23 -5 45 -13z m591 -31 c-3 -8 -10 -12 -16 -9 -14 9 -12
42 3 48 14 5 21 -17 13 -39z m-1552 15 c42 -6 73 -15 70 -20 -3 -5 4 -9 15 -9
12 0 21 -4 21 -9 0 -5 -39 -13 -87 -17 -95 -8 -324 -12 -317 -5 2 2 -4 10 -14
17 -28 20 -5 29 89 32 49 2 89 8 89 13 0 12 43 11 134 -2z m-694 -33 c0 -6 -4
-5 -9 3 -7 11 -9 11 -14 0 -3 -8 -6 -3 -6 10 -1 20 1 21 14 11 8 -7 15 -18 15
-24z m-40 14 c0 -5 -2 -10 -4 -10 -3 0 -8 5 -11 10 -3 6 -1 10 4 10 6 0 11 -4
11 -10z m117 -92 c-3 -8 -6 -5 -6 6 -1 11 2 17 5 13 3 -3 4 -12 1 -19z m38 0
c6 -4 2 -8 -7 -8 -10 0 -18 7 -18 17 0 9 3 12 8 7 4 -5 12 -12 17 -16z m1930
-12 c10 -24 12 -42 5 -67 -13 -43 -30 -68 -36 -53 -3 7 -14 10 -25 7 -13 -4
-28 4 -44 21 -40 43 -64 7 -29 -43 16 -22 15 -23 -2 -19 -11 1 -25 17 -33 35
-13 29 -31 43 -74 57 -14 4 -17 12 -12 28 9 28 35 58 35 40 0 -14 56 -16 65
-2 12 20 25 9 25 -20 0 -19 6 -33 16 -37 20 -7 52 24 58 57 2 14 5 26 5 28 1
1 8 2 17 2 8 0 21 -15 29 -34z m-1801 -72 c18 -7 12 -24 -10 -24 -8 0 -14 7
-14 15 0 17 2 18 24 9z m784 -25 c12 -19 20 -21 63 -15 40 6 49 4 49 -9 0 -8
9 -15 20 -15 11 0 20 -5 20 -11 0 -6 -9 -13 -20 -16 -11 -3 -20 -9 -20 -14 0
-5 -9 -9 -20 -9 -11 0 -20 6 -20 13 0 7 -3 8 -8 2 -9 -12 -42 -17 -62 -8 -8 3
-24 6 -35 7 -12 1 -21 9 -23 23 -3 18 1 20 19 16 19 -5 21 -3 14 26 -8 36 4
41 23 10z m-9 -136 c0 -25 -1 -25 -8 -8 -5 11 -7 23 -4 28 8 14 13 7 12 -20z"/>
<path d="M3582 6699 c-8 -12 -19 -18 -28 -15 -8 3 -14 1 -14 -4 0 -17 26 -11
45 10 10 11 16 22 14 25 -3 2 -10 -5 -17 -16z"/>
<path d="M3605 6690 c-3 -5 -1 -10 4 -10 6 0 11 5 11 10 0 6 -2 10 -4 10 -3 0
-8 -4 -11 -10z"/>
<path d="M9196 6894 c-23 -23 -20 -30 4 -9 11 10 20 20 20 22 0 7 -9 2 -24
-13z"/>
<path d="M5730 5010 c0 -5 5 -10 11 -10 5 0 7 5 4 10 -3 6 -8 10 -11 10 -2 0
-4 -4 -4 -10z"/>
<path d="M5490 4991 c0 -11 5 -23 10 -26 6 -4 10 5 10 19 0 14 -4 26 -10 26
-5 0 -10 -9 -10 -19z"/>
<path d="M8245 6930 c3 -5 8 -10 11 -10 2 0 4 5 4 10 0 6 -5 10 -11 10 -5 0
-7 -4 -4 -10z"/>
<path d="M7550 6905 c7 -8 17 -15 22 -15 5 0 3 7 -6 15 -8 8 -18 15 -22 15 -3
0 -1 -7 6 -15z"/>
<path d="M4291 6894 c0 -11 3 -14 6 -6 3 7 2 16 -1 19 -3 4 -6 -2 -5 -13z"/>
<path d="M8680 6895 c0 -8 6 -15 14 -15 8 0 17 -8 19 -17 4 -17 5 -17 6 0 1
18 16 23 25 8 4 -5 0 -11 -6 -14 -7 -3 -3 -4 10 -4 28 2 28 6 -5 34 -30 26
-63 30 -63 8z"/>
<path d="M8830 6895 c-7 -9 -8 -15 -2 -15 5 0 12 7 16 15 3 8 4 15 2 15 -2 0
-9 -7 -16 -15z"/>
<path d="M4667 6780 c3 -11 7 -20 9 -20 2 0 4 9 4 20 0 11 -4 20 -9 20 -5 0
-7 -9 -4 -20z"/>
<path d="M9177 6730 c10 -11 19 -20 21 -20 1 0 -2 9 -8 20 -6 11 -15 20 -20
20 -6 0 -2 -9 7 -20z"/>
<path d="M9227 6720 c10 -11 19 -20 21 -20 1 0 -2 9 -8 20 -6 11 -15 20 -20
20 -6 0 -2 -9 7 -20z"/>
<path d="M3940 6700 c0 -11 5 -20 10 -20 6 0 10 9 10 20 0 11 -4 20 -10 20 -5
0 -10 -9 -10 -20z"/>
<path d="M3940 6656 c0 -9 5 -16 10 -16 6 0 10 4 10 9 0 6 -4 13 -10 16 -5 3
-10 -1 -10 -9z"/>
<path d="M3930 6615 c0 -8 7 -15 15 -15 8 0 15 7 15 15 0 8 -7 15 -15 15 -8 0
-15 -7 -15 -15z"/>
<path d="M3991 6614 c0 -11 3 -14 6 -6 3 7 2 16 -1 19 -3 4 -6 -2 -5 -13z"/>
<path d="M3986 6581 c-4 -7 -5 -15 -2 -18 9 -9 19 4 14 18 -4 11 -6 11 -12 0z"/>
<path d="M8688 6583 c6 -2 18 -2 25 0 6 3 1 5 -13 5 -14 0 -19 -2 -12 -5z"/>
<path d="M4710 6280 l0 -200 139 0 c136 0 139 0 143 23 9 53 3 57 -93 57 l-89
0 0 63 c0 56 1 60 13 37 11 -21 21 -25 65 -28 l52 -3 0 45 0 46 -65 0 -65 0 0
40 0 40 90 0 90 0 0 40 0 40 -140 0 -140 0 0 -200z"/>
<path d="M5304 6448 c-69 -47 -89 -87 -89 -175 0 -64 3 -75 31 -114 80 -111
243 -121 329 -21 l29 35 -29 23 c-34 27 -63 31 -72 9 -7 -19 -55 -45 -82 -45
-57 0 -103 50 -103 114 -2 109 112 160 178 80 23 -28 41 -27 83 5 23 18 23 19
6 45 -32 48 -93 76 -167 76 -58 0 -72 -4 -114 -32z"/>
<path d="M5860 6280 l0 -200 50 0 49 0 3 101 3 101 69 -101 69 -101 53 0 c66
0 70 15 22 80 -30 40 -30 43 -8 27 13 -9 28 -17 32 -17 5 0 8 70 8 156 l0 155
-52 -3 -53 -3 0 -102 c0 -57 0 -103 -1 -103 -2 0 -95 130 -124 172 -23 35 -29
38 -72 38 l-48 0 0 -200z"/>
<path d="M6480 6280 l0 -200 50 0 50 0 0 200 0 200 -50 0 -50 0 0 -200z"/>
<path d="M6955 6464 c-75 -39 -115 -105 -115 -188 0 -30 5 -68 12 -83 16 -38
95 -113 119 -113 10 0 19 -3 19 -7 0 -5 22 -6 50 -5 34 3 50 0 50 -8 0 -7 -7
-10 -15 -6 -19 7 -19 1 1 -18 12 -12 20 -13 35 -6 22 12 26 32 4 24 -9 -4 -15
0 -15 10 0 17 36 23 42 6 2 -6 8 -6 18 0 13 8 12 10 -3 10 -14 0 -6 12 30 45
l48 45 -30 25 c-38 32 -52 31 -95 -5 -19 -17 -45 -30 -58 -30 -58 0 -112 56
-112 117 0 68 83 138 133 112 12 -6 34 -23 49 -36 28 -27 46 -26 88 7 l25 19
-35 36 c-19 20 -47 43 -62 51 -36 19 -145 18 -183 -2z"/>
<path d="M7593 6453 c-7 -16 -33 -80 -59 -143 -25 -63 -57 -139 -70 -168 -13
-29 -24 -55 -24 -57 0 -3 26 -5 59 -5 57 0 59 1 65 30 l6 30 84 0 84 0 11 -30
c9 -28 13 -30 65 -30 31 0 56 1 56 3 0 1 -27 67 -61 147 -33 80 -63 153 -66
163 -6 20 -33 23 -51 5 -16 -16 -15 -8 3 35 8 19 11 37 8 41 -4 3 -27 6 -52 6
-41 0 -48 -3 -58 -27z m85 -221 c-10 -2 -29 -2 -42 0 l-24 3 21 52 22 52 21
-52 c19 -49 20 -52 2 -55z"/>
<path d="M8445 6460 c-3 -5 -1 -10 4 -10 6 0 11 5 11 10 0 6 -2 10 -4 10 -3 0
-8 -4 -11 -10z"/>
<path d="M8430 6329 c0 -5 5 -7 10 -4 6 3 10 8 10 11 0 2 -4 4 -10 4 -5 0 -10
-5 -10 -11z"/>
<path d="M7186 6067 c3 -10 9 -15 12 -12 3 3 0 11 -7 18 -10 9 -11 8 -5 -6z"/>
<path d="M7305 6070 c-3 -5 -1 -10 4 -10 6 0 11 5 11 10 0 6 -2 10 -4 10 -3 0
-8 -4 -11 -10z"/>
<path d="M5478 6043 c7 -3 16 -2 19 1 4 3 -2 6 -13 5 -11 0 -14 -3 -6 -6z"/>
<path d="M7246 6043 c-3 -3 -16 -7 -29 -8 -16 -1 -23 -9 -25 -28 -3 -22 4 -31
32 -48 20 -12 36 -24 36 -28 0 -4 -13 -12 -30 -18 -37 -14 -40 -46 -5 -69 29
-19 40 -14 64 33 23 46 11 109 -23 117 -11 2 -3 3 19 1 22 -2 52 -7 67 -10 15
-4 35 -4 44 -1 13 5 14 9 3 22 -14 17 -54 41 -46 27 4 -5 0 -10 -7 -10 -8 0
-12 6 -9 14 4 11 0 11 -22 3 -17 -6 -33 -7 -44 0 -10 5 -21 6 -25 3z"/>
<path d="M7440 6031 c0 -5 11 -11 25 -13 28 -6 34 6 9 16 -22 8 -34 7 -34 -3z"/>
<path d="M4968 6003 c7 -3 16 -2 19 1 4 3 -2 6 -13 5 -11 0 -14 -3 -6 -6z"/>
<path d="M5348 6003 c6 -2 18 -2 25 0 6 3 1 5 -13 5 -14 0 -19 -2 -12 -5z"/>
<path d="M7458 5741 c-47 -13 -55 -19 -47 -32 5 -9 23 -19 41 -23 35 -6 176
-74 217 -103 l24 -17 -18 33 -17 34 36 -7 c29 -6 37 -3 46 14 8 14 8 20 0 20
-6 0 -9 4 -5 9 3 5 1 13 -5 16 -6 4 -9 1 -8 -6 2 -6 -4 -14 -12 -17 -8 -2 -12
-1 -7 3 4 5 0 17 -10 27 -20 23 -40 24 -22 1 11 -13 4 -11 -31 6 -25 13 -53
28 -63 33 -44 22 -64 24 -119 9z"/>
<path d="M7790 5713 c0 -5 14 -22 30 -38 23 -22 30 -25 30 -12 0 9 -5 17 -11
17 -5 0 -7 6 -3 13 4 6 3 9 -1 4 -5 -4 -17 0 -27 10 -10 9 -18 12 -18 6z"/>
<path d="M7205 5630 c-3 -5 -2 -10 4 -10 5 0 13 5 16 10 3 6 2 10 -4 10 -5 0
-13 -4 -16 -10z"/>
<path d="M7800 5630 c0 -5 5 -10 11 -10 5 0 7 5 4 10 -3 6 -8 10 -11 10 -2 0
-4 -4 -4 -10z"/>
<path d="M7502 5258 c-30 -30 10 -58 45 -32 11 8 13 13 6 14 -7 0 -13 7 -13
15 0 18 -21 20 -38 3z"/>
<path d="M7156 5164 c-3 -8 -3 -40 0 -70 5 -42 13 -61 37 -84 43 -42 87 -60
146 -60 60 0 103 16 149 55 l34 28 -24 13 c-12 7 -54 18 -93 25 -77 13 -105
24 -175 75 -53 38 -65 41 -74 18z"/>
<path d="M5835 3750 c4 -6 11 -8 16 -5 14 9 11 15 -7 15 -8 0 -12 -5 -9 -10z"/>
<path d="M6315 3738 c-15 -47 -14 -53 10 -65 31 -14 32 -6 3 24 -18 20 -19 23
-5 23 19 0 21 8 8 28 -6 10 -10 8 -16 -10z"/>
<path d="M4660 3670 c0 -5 5 -10 10 -10 6 0 10 5 10 10 0 6 -4 10 -10 10 -5 0
-10 -4 -10 -10z"/>
<path d="M7668 3627 c-46 -40 -88 -103 -88 -132 0 -27 39 -65 67 -65 25 0 55
33 57 62 1 14 8 24 21 26 11 2 26 9 32 14 16 13 6 31 -10 21 -7 -4 -6 0 2 10
7 9 22 17 32 17 11 0 19 7 19 16 0 8 4 13 9 10 5 -3 15 1 22 10 11 13 9 14
-15 8 -22 -5 -28 -3 -32 13 -9 34 -72 29 -116 -10z m100 -9 c2 -9 -7 -26 -19
-37 -24 -22 -39 -21 -20 2 9 11 8 17 -4 27 -23 19 -18 32 12 28 16 -2 29 -10
31 -20z m-83 -48 c10 -16 -5 -50 -21 -50 -20 0 -29 27 -14 45 14 17 26 19 35
5z m-63 -42 c-7 -7 -12 -8 -12 -2 0 14 12 26 19 19 2 -3 -1 -11 -7 -17z"/>
<path d="M4720 3640 c0 -5 5 -10 10 -10 6 0 10 5 10 10 0 6 -4 10 -10 10 -5 0
-10 -4 -10 -10z"/>
<path d="M5195 3640 c-3 -5 3 -10 15 -10 12 0 18 5 15 10 -3 6 -10 10 -15 10
-5 0 -12 -4 -15 -10z"/>
<path d="M8190 3621 c0 -12 5 -21 10 -21 6 0 10 6 10 14 0 8 -4 18 -10 21 -5
3 -10 -3 -10 -14z"/>
<path d="M7301 3614 c0 -11 3 -14 6 -6 3 7 2 16 -1 19 -3 4 -6 -2 -5 -13z"/>
<path d="M8111 3366 c2 -2 53 -20 113 -40 60 -19 126 -47 148 -62 27 -19 42
-24 49 -17 21 21 -89 75 -217 108 -59 14 -102 20 -93 11z"/>
<path d="M7995 3293 c-28 -31 -65 -76 -83 -100 -30 -39 -31 -43 -12 -43 13 0
20 -7 20 -19 0 -11 4 -22 9 -25 5 -3 12 -18 16 -33 19 -77 135 -261 135 -214
0 7 19 39 41 73 l41 60 -21 38 c-22 40 -27 76 -12 99 12 19 74 16 105 -5 24
-15 26 -15 67 26 44 44 44 43 -4 71 -10 6 -42 17 -70 26 -67 20 -163 68 -174
88 -7 12 -19 3 -58 -42z m100 -203 c3 -15 0 -33 -8 -44 -21 -29 -53 -12 -86
46 -28 48 -28 51 -12 79 l16 29 42 -43 c23 -23 45 -53 48 -67z"/>
<path d="M8374 3144 c3 -9 6 -18 6 -20 0 -2 9 1 20 8 27 17 25 28 -6 28 -20 0
-25 -4 -20 -16z"/>
<path d="M8440 3147 c0 -23 13 -27 35 -11 10 8 14 14 8 14 -6 0 -18 3 -27 6
-10 4 -16 1 -16 -9z"/>
<path d="M8329 3114 c-10 -13 -10 -16 -1 -10 9 5 15 1 19 -13 4 -17 8 -19 19
-10 11 9 18 8 29 -1 11 -10 17 -9 29 3 14 13 14 17 -1 29 -9 7 -14 8 -10 2 4
-8 -4 -13 -24 -16 -24 -4 -32 0 -38 14 -7 19 -8 19 -22 2z"/>
<path d="M8295 3070 c-8 -12 51 -78 61 -67 2 2 -2 10 -10 16 -8 7 -12 20 -9
29 3 9 3 14 -2 10 -4 -4 -13 0 -20 9 -9 12 -14 13 -20 3z"/>
<path d="M8605 3070 c3 -5 12 -10 20 -10 29 0 33 -63 9 -133 -9 -26 -20 -49
-24 -52 -4 -3 0 18 11 45 10 28 19 65 19 84 0 29 -5 36 -36 51 -34 16 -39 16
-80 0 -64 -24 -154 -96 -192 -153 -43 -63 -61 -115 -62 -174 0 -64 19 -82 78
-74 50 7 153 61 149 79 -1 6 4 12 11 13 6 1 16 2 22 3 15 2 92 120 112 173 10
27 18 68 18 92 0 36 -4 45 -25 54 -32 15 -38 15 -30 2z m-47 -62 c-2 -7 5 -12
14 -12 9 1 14 -4 12 -11 -3 -7 -1 -16 5 -20 6 -3 11 -1 11 4 0 6 5 11 12 11 6
0 4 -8 -6 -19 -17 -19 -18 -19 -46 7 -21 20 -26 30 -18 39 13 16 19 16 16 1z
m-27 -45 c13 -16 12 -17 -3 -4 -10 7 -18 15 -18 17 0 8 8 3 21 -13z m35 -34
c3 -5 -10 -9 -28 -9 -31 -1 -32 -1 -14 -15 11 -8 16 -15 12 -15 -11 0 -66 47
-61 52 7 7 85 -4 91 -13z m-46 -60 c0 -4 -11 -6 -24 -5 -13 0 -22 4 -20 7 2 4
-3 9 -11 13 -8 3 -15 10 -15 16 0 5 16 2 35 -7 19 -9 35 -20 35 -24z m-99 -3
c-19 -23 -2 -48 29 -44 20 3 26 1 23 -9 -6 -16 -45 -17 -61 -1 -13 13 -16 50
-5 61 13 13 25 7 14 -7z m-16 -72 c20 -8 34 -18 31 -21 -9 -10 -57 -13 -51 -3
3 4 -2 10 -10 14 -8 3 -15 10 -15 16 0 13 1 13 45 -6z m165 13 c0 -2 -10 -12
-22 -23 l-23 -19 19 23 c18 21 26 27 26 19z m-211 -58 c4 -12 2 -12 -12 0 -10
8 -17 9 -17 3 0 -6 11 -20 25 -30 14 -11 22 -23 18 -25 -5 -3 -21 6 -37 19
-23 20 -26 27 -15 40 14 17 31 14 38 -7z m51 -3 c0 -3 -4 -8 -10 -11 -5 -3
-10 -1 -10 4 0 6 5 11 10 11 6 0 10 -2 10 -4z"/>
<path d="M8360 3048 c0 -27 15 -34 32 -17 14 15 15 18 1 23 -23 9 -33 7 -33
-6z"/>
<path d="M8275 3033 c5 -18 2 -21 -17 -16 -18 4 -20 3 -8 -6 18 -13 50 -15 50
-3 0 5 -7 17 -16 28 -15 19 -15 18 -9 -3z"/>
<path d="M8313 2994 c4 -17 0 -21 -17 -17 -19 4 -19 3 -3 -7 10 -6 24 -10 32
-8 11 3 11 7 -1 28 -13 22 -15 22 -11 4z"/>
<path d="M8220 2985 c-7 -8 -11 -17 -9 -18 2 -1 13 -9 23 -17 13 -10 17 -10
12 -2 -13 21 15 13 34 -10 10 -13 21 -20 24 -17 3 3 -12 22 -33 43 -33 33 -39
35 -51 21z"/>
<path d="M8186 2945 c-7 -18 22 -48 37 -38 5 3 16 -2 26 -11 17 -15 19 -15 32
1 9 11 10 14 1 9 -11 -7 -68 25 -83 47 -3 5 -9 1 -13 -8z"/>
<path d="M8144 2899 c-3 -6 1 -18 9 -27 13 -12 19 -13 30 -3 12 9 16 7 20 -9
6 -24 32 -27 41 -4 8 21 -2 36 -22 32 -10 -1 -23 1 -29 5 -8 5 -13 4 -13 -2 0
-6 -5 -11 -11 -11 -6 0 -9 7 -5 15 6 17 -9 21 -20 4z m94 -30 c-2 -6 -8 -10
-13 -10 -5 0 -11 4 -13 10 -2 6 4 11 13 11 9 0 15 -5 13 -11z"/>
<path d="M8828 2874 c-3 -3 15 -24 40 -47 26 -23 56 -53 67 -67 11 -13 28 -31
37 -39 27 -23 22 -36 -28 -83 -76 -71 -94 -75 -74 -13 7 20 20 41 31 48 26 16
24 23 -16 50 -19 13 -53 40 -75 61 -21 20 -43 36 -48 36 -11 0 -82 -74 -81
-85 0 -6 19 -26 43 -45 82 -67 98 -112 57 -153 l-21 -22 -43 23 c-23 12 -61
40 -84 62 l-42 39 -33 -38 c-18 -22 -43 -57 -55 -78 l-22 -39 41 -32 c22 -17
59 -49 82 -70 60 -56 75 -63 113 -47 42 18 221 196 266 266 70 108 71 101 -30
196 -80 75 -109 94 -125 77z"/>
<path d="M8160 2826 c0 -20 24 -36 39 -26 8 4 11 15 8 24 -8 20 -47 21 -47 2z"/>
<path d="M9799 2060 c-164 -11 -299 -27 -346 -43 -47 -15 -68 -51 -59 -99 6
-34 11 -38 59 -52 52 -14 216 -47 442 -86 625 -110 1239 -254 1595 -375 74
-25 149 -52 165 -59 103 -47 89 -46 466 -46 382 0 413 -3 574 -54 44 -14 86
-26 93 -26 10 0 12 17 10 67 l-3 66 -125 40 -125 40 -390 6 -390 7 -85 33
c-335 130 -1004 290 -1740 416 -113 19 -209 36 -215 36 -5 1 13 5 40 10 28 5
203 11 390 15 330 7 635 -3 885 -26 58 -6 152 -15 210 -21 58 -5 141 -14 185
-19 316 -38 500 -60 565 -65 41 -4 140 -20 220 -35 80 -16 186 -33 235 -39
182 -22 271 -31 308 -31 l37 0 0 70 0 70 -37 0 c-63 0 -321 29 -443 50 -63 10
-198 26 -300 35 -102 8 -257 24 -345 35 -199 24 -408 46 -635 66 -201 18
-1036 27 -1241 14z"/>
<path d="M5453 891 c-129 -59 -100 -265 40 -288 31 -5 37 -3 37 13 0 17 1 17
14 -1 13 -18 14 -18 46 1 50 29 73 66 77 126 6 70 -19 115 -77 146 -54 27 -82
27 -137 3z m98 -51 c15 0 49 -63 49 -92 0 -35 -45 -88 -75 -88 -57 0 -99 73
-75 131 14 32 56 61 78 54 8 -3 18 -5 23 -5z"/>
<path d="M7223 891 c-107 -50 -113 -208 -11 -271 44 -27 78 -26 78 1 l0 21 18
-21 c17 -21 18 -21 52 -4 23 12 43 34 58 63 69 134 -61 274 -195 211z m105
-66 c36 -30 45 -69 27 -112 -37 -87 -145 -53 -145 45 0 33 24 70 54 82 31 13
32 12 64 -15z"/>
<path d="M5030 755 l0 -145 35 0 35 0 1 63 c0 59 1 61 16 40 27 -40 111 -23
147 29 32 45 11 123 -39 146 -14 7 -64 12 -110 12 l-85 0 0 -145z m158 79 c45
-31 11 -88 -50 -82 -29 3 -33 7 -36 36 -2 19 -1 40 2 48 7 19 56 18 84 -2z"/>
<path d="M5760 755 l0 -145 35 0 c34 0 35 1 35 40 l0 40 43 -1 c35 0 39 -2 25
-12 -15 -10 -15 -13 3 -39 17 -24 27 -28 66 -28 45 0 45 0 29 23 -53 73 -51
67 -28 83 33 23 46 75 29 117 -24 56 -49 67 -149 67 l-88 0 0 -145z m160 75
c11 -11 20 -24 20 -30 0 -23 -41 -50 -75 -50 -35 0 -35 0 -35 43 0 24 3 47 7
50 14 14 64 6 83 -13z"/>
<path d="M6250 755 l0 -145 35 0 35 0 1 78 c0 73 1 76 16 55 11 -17 25 -23 54
-23 37 0 39 2 39 30 0 30 0 30 -56 30 l-55 0 3 33 3 32 68 3 c64 3 67 4 67 27
0 25 0 25 -105 25 l-105 0 0 -145z"/>
<path d="M6523 755 l-61 -145 38 0 c30 0 39 5 48 25 11 23 17 25 72 25 55 0
61 -2 70 -25 8 -20 16 -25 45 -25 19 0 35 4 35 9 0 8 -88 223 -95 229 -2 2
-13 -1 -25 -8 -20 -11 -21 -11 -6 24 l15 36 -38 0 -38 0 -60 -145z m113 10
c19 -46 19 -45 -20 -45 l-35 0 17 40 c9 22 18 40 20 40 2 0 10 -16 18 -35z"/>
<path d="M6780 893 c0 -5 16 -47 36 -93 20 -47 42 -100 50 -119 14 -34 14 -34
35 -15 22 19 22 19 14 -6 -4 -14 -10 -31 -13 -38 -3 -10 5 -13 34 -10 l38 3
58 139 c32 77 58 141 58 143 0 2 -17 3 -38 3 l-39 0 -37 -96 c-21 -52 -41 -93
-44 -89 -3 3 -22 45 -42 93 -36 85 -37 87 -73 90 -20 2 -37 -1 -37 -5z"/>
<path d="M7530 755 l0 -145 35 0 c34 0 35 1 35 40 l0 40 42 0 c39 0 40 -1 22
-14 -19 -14 -19 -15 5 -40 19 -20 34 -26 69 -26 l44 0 -34 43 -35 42 28 28
c24 23 29 37 29 74 0 37 -5 50 -31 74 -30 28 -36 29 -120 29 l-89 0 0 -145z
m154 79 c22 -21 20 -61 -3 -74 -11 -5 -33 -10 -50 -10 -30 0 -31 1 -31 50 l0
50 34 0 c19 0 42 -7 50 -16z"/>
<path d="M5260 420 l0 -151 103 3 c101 3 102 3 102 28 0 24 -3 25 -67 28 l-68
3 0 47 c1 41 2 45 14 30 8 -12 27 -18 50 -18 33 0 36 2 36 30 0 29 -1 30 -50
30 -49 0 -50 1 -50 30 l0 30 71 0 70 0 -3 28 -3 27 -102 3 -103 3 0 -151z"/>
<path d="M5575 545 c-18 -17 -25 -35 -25 -63 0 -48 19 -67 91 -90 42 -13 54
-22 54 -37 0 -27 -45 -32 -80 -9 -22 15 -29 15 -51 4 -14 -8 -23 -20 -22 -28
5 -26 69 -52 126 -52 66 0 102 29 102 84 0 55 -8 63 -81 92 -52 19 -69 30 -67
43 4 22 44 26 74 7 22 -15 26 -15 49 0 33 21 32 30 -7 54 -49 30 -131 28 -163
-5z"/>
<path d="M5870 420 l0 -151 33 3 c32 3 32 3 37 68 4 49 7 60 13 43 7 -18 16
-23 43 -23 103 0 151 98 85 172 -28 32 -32 33 -120 36 l-91 4 0 -152z m158 78
c7 -7 12 -21 12 -33 0 -31 -19 -45 -62 -45 l-38 0 0 45 0 45 38 0 c21 0 43 -5
50 -12z"/>
<path d="M6200 420 l0 -151 103 3 c101 3 102 3 102 28 0 24 -3 25 -67 28 l-68
3 0 47 c1 41 2 45 14 30 8 -12 27 -18 50 -18 33 0 36 2 36 30 0 29 -1 30 -50
30 -49 0 -50 1 -50 30 l0 30 71 0 70 0 -3 28 -3 27 -102 3 -103 3 0 -151z"/>
<path d="M6500 420 l0 -150 35 0 c35 0 35 0 35 45 l0 45 48 0 c40 -1 44 -2 27
-12 -11 -6 -22 -13 -24 -15 -3 -2 8 -17 24 -33 22 -23 38 -30 67 -30 21 0 38
3 38 6 0 3 -14 24 -31 46 l-32 39 21 22 c42 45 47 94 15 144 -20 30 -64 43
-149 43 l-74 0 0 -150z m170 69 c19 -34 -11 -69 -60 -69 l-40 0 0 45 0 45 45
0 c35 0 47 -5 55 -21z"/>
<path d="M6834 557 c-2 -7 -3 -74 -2 -148 l3 -134 103 -3 102 -3 0 31 0 30
-70 0 -70 0 0 45 c0 25 5 45 10 45 6 0 10 -7 10 -15 0 -11 12 -15 46 -15 44 0
45 1 42 28 -3 25 -7 27 -55 30 -51 3 -53 4 -53 33 l0 29 70 0 70 0 0 30 0 30
-100 0 c-73 0 -102 -4 -106 -13z"/>
<path d="M7141 326 c-7 -8 -10 -24 -6 -36 8 -25 62 -28 72 -4 14 38 -41 71
-66 40z"/>
<path d="M7314 326 c-12 -31 0 -51 31 -51 27 0 30 3 30 30 0 25 -4 30 -28 33
-17 2 -29 -2 -33 -12z"/>
<path d="M7481 326 c-7 -8 -10 -24 -6 -36 8 -25 62 -28 72 -4 14 38 -41 71
-66 40z"/>
</g>
</svg>
